<svg width="180" height="72" viewBox="0 0 180 72" fill="none" xmlns="http://www.w3.org/2000/svg">
<path d="M17.0023 11.2862C7.98402 17.4347 0.301753 22.7409 0.0512439 22.9935C-0.282768 23.3304 1.05328 25.6045 2.97385 28.2155C18.1714 48.5138 40.5502 63.2533 64.6825 68.9806C94.7435 76.0556 124.053 70.6651 150.44 53.1462C157.538 48.4296 170.481 36.0485 175.992 28.6366L180 23.2462L162.715 11.6231C153.196 5.22198 145.179 0 144.929 0C144.595 0 142.758 2.18987 140.754 4.80085C128.896 20.2983 106.517 30.4054 86.5602 29.142C67.6886 28.0471 51.99 20.1299 38.8801 5.13775C36.4585 2.27409 34.2039 0 33.9534 0.0842285C33.7029 0.0842285 26.1041 5.13775 17.0023 11.2862Z" fill="#ED145B"/>
</svg>
