<svg width="320" height="88" viewBox="0 0 320 88" fill="none" xmlns="http://www.w3.org/2000/svg">
<path d="M261.296 66.7601C257.889 71.8339 252.069 75.1908 245.464 75.1908C238.859 75.1908 233.034 71.8339 229.627 66.7601L219.373 73.4692C224.98 81.8328 234.58 87.3622 245.464 87.3622C256.348 87.3622 265.943 81.8328 271.555 73.4692L261.296 66.7601Z" fill="#ED145B"/>
<path d="M251.57 56.7037H239.358V36.8353C239.358 30.7928 239.276 26.5679 233.247 26.5679C228.309 26.5679 226.385 30.5434 226.385 35.9241V56.7037H214.173V17.2979H226.22V22.1798C228.144 18.9524 232.326 16.3004 237.851 16.3004C244.044 16.3004 248.139 18.703 250.237 23.4219C252.079 20.0266 256.673 16.3004 263.035 16.3004C267.634 16.3004 270.9 17.5425 273.246 20.1081C275.751 22.928 276.759 25.6567 276.759 34.3464V56.6989H264.547V36.8305C264.547 30.788 264.547 26.5631 258.519 26.5631C253.499 26.5631 251.58 30.5386 251.58 35.9193V56.6989L251.57 56.7037Z" fill="#2E304A"/>
<path d="M81.7372 56.7085H69.5254V36.8305C69.5254 30.788 69.2685 26.5631 63.245 26.5631C58.1421 26.5631 55.9711 30.5386 55.9711 35.9193V56.7037H43.7544V0.402832H55.9711V21.9305C57.895 18.866 62.0771 16.3004 67.7663 16.3004C72.3651 16.3004 75.8833 17.5425 78.2239 20.1081C80.7293 22.928 81.7372 25.6567 81.7372 34.3464V56.7085Z" fill="#2E304A"/>
<path d="M121.426 46.8534C121.426 49.3328 121.756 50.1624 123.515 50.1624H124.096V57.1209C122.255 57.4518 120.418 57.6148 118.412 57.6148C114.899 57.6148 111.632 56.953 110.799 54.0565H110.717C108.875 56.0371 105.943 57.6964 99.503 57.6964C90.7172 57.6964 85.1152 53.222 85.1152 45.0263C85.1152 37.4971 90.8917 34.5142 99.3431 33.1858L107.625 31.8622C109.796 31.5265 110.13 31.282 110.13 30.0399V29.3781C110.13 26.4 108.458 24.7407 104.276 24.7407C100.094 24.7407 97.6712 26.4767 97.6712 30.4523L86.3752 30.3708C86.2104 21.3454 93.5715 16.4634 104.78 16.4634C114.991 16.4634 121.436 19.6094 121.436 28.5485V46.8486L121.426 46.8534ZM110.043 38.8207C109.127 39.1516 108.371 39.564 104.102 40.3985C100.172 41.1418 97.2447 41.8036 97.2447 45.1941C97.2447 48.5846 99.6726 49.8315 103.186 49.8315C107.198 49.8315 110.048 48.0092 110.048 43.8705V38.8207H110.043Z" fill="#2E304A"/>
<path d="M140.524 17.2931V22.6738C141.61 19.6957 146.126 16.3819 151.728 16.3819C152.237 16.3819 152.654 16.3819 153.153 16.4634V28.0545C151.815 27.7236 150.308 27.5605 149.223 27.5605C144.537 27.5605 142.191 29.7953 141.275 33.1091C140.854 34.6005 140.689 36.4181 140.689 38.4083V56.7036H128.472V17.2931H140.519H140.524Z" fill="#2E304A"/>
<path d="M169.833 17.2979H157.534V56.7084H169.833V17.2979Z" fill="#2E304A"/>
<path d="M316.438 46.8534C316.438 49.3328 316.768 50.1624 318.527 50.1624H319.113V57.1209C317.267 57.4518 315.426 57.6148 313.419 57.6148C309.906 57.6148 306.645 56.953 305.806 54.0565H305.724C303.882 56.0371 300.955 57.6964 294.51 57.6964C285.725 57.6964 280.123 53.222 280.123 45.0263C280.123 37.4971 285.899 34.5142 294.35 33.1858L302.632 31.8622C304.808 31.5265 305.138 31.282 305.138 30.0399V29.3781C305.138 26.4 303.466 24.7407 299.284 24.7407C295.102 24.7407 292.679 26.4767 292.679 30.4523L281.387 30.3708C281.218 21.3454 288.584 16.4634 299.788 16.4634C309.998 16.4634 316.443 19.6094 316.443 28.5485V46.8486L316.438 46.8534ZM305.055 38.8207C304.139 39.1516 303.383 39.564 299.119 40.3985C295.184 41.1418 292.257 41.8036 292.257 45.1941C292.257 48.5846 294.685 49.8315 298.198 49.8315C302.211 49.8315 305.06 48.0092 305.06 43.8705V38.8207H305.055Z" fill="#2E304A"/>
<path d="M202.267 29.3014C199.34 26.6494 195.405 24.9949 191.475 24.9949C188.713 24.9949 186.295 25.9013 186.295 27.8915C186.295 29.8816 188.131 30.5434 192.231 31.3683L198.507 32.6967C204.947 34.0203 210.806 36.5859 210.806 44.1199C210.806 53.3083 202.689 57.6916 193.239 57.6916C183.789 57.6916 176.423 53.7256 172.828 48.8388L180.523 42.7052C182.946 46.019 187.719 48.7477 193.239 48.7477C197.334 48.7477 199.427 47.4241 199.427 45.2709C199.427 43.1176 196.999 42.6285 194.32 42.1249L188.044 40.8876C184.032 40.1443 180.596 38.8159 178.168 36.7442C175.997 34.9267 174.742 32.361 174.742 29.0472C174.742 19.6909 183.867 16.2956 191.727 16.2956C199.175 16.2956 205.112 19.0291 209.129 22.8368L202.267 29.2966V29.3014Z" fill="#2E304A"/>
<path d="M169.833 0.407623H157.534V12.579H169.833V0.407623Z" fill="#2E304A"/>
<path d="M39.9652 46.9349C37.7894 52.4835 32.1874 57.7011 21.6425 57.7011C9.09628 57.7011 0.5625 50.4933 0.5625 37.171C0.5625 23.8487 9.09144 16.3004 21.6425 16.3004C32.6866 16.3004 38.3757 22.1798 40.3868 28.558L29.842 32.1164C28.6741 27.8099 25.907 25.4073 21.6425 25.4073C15.9534 25.4073 12.944 29.7138 12.944 37.0032C12.944 44.2925 16.0406 48.5127 21.6425 48.5127C25.5775 48.5127 28.3349 46.441 29.59 42.7196L39.9652 46.9397V46.9349Z" fill="#2E304A"/>
<path d="M39.9652 46.9349C37.7894 52.4835 32.1874 57.7011 21.6425 57.7011C9.09628 57.7011 0.5625 50.4933 0.5625 37.171C0.5625 23.8487 9.09144 16.3004 21.6425 16.3004C32.6866 16.3004 38.3757 22.1798 40.3868 28.558L29.842 32.1164C28.6741 27.8099 25.907 25.4073 21.6425 25.4073C15.9534 25.4073 12.944 29.7138 12.944 37.0032C12.944 44.2925 16.0406 48.5127 21.6425 48.5127C25.5775 48.5127 28.3349 46.441 29.59 42.7196L39.9652 46.9397V46.9349Z" fill="#2E304A"/>
<path d="M39.9652 46.9349C37.7894 52.4835 32.1874 57.7011 21.6425 57.7011C9.09628 57.7011 0.5625 50.4933 0.5625 37.171C0.5625 23.8487 9.09144 16.3004 21.6425 16.3004C32.6866 16.3004 38.3757 22.1798 40.3868 28.558L29.842 32.1164C28.6741 27.8099 25.907 25.4073 21.6425 25.4073C15.9534 25.4073 12.944 29.7138 12.944 37.0032C12.944 44.2925 16.0406 48.5127 21.6425 48.5127C25.5775 48.5127 28.3349 46.441 29.59 42.7196L39.9652 46.9397V46.9349Z" fill="#2E304A"/>
</svg>
